<?xml version="1.0" encoding="UTF-8" standalone="no"?>
<!DOCTYPE svg PUBLIC "-//W3C//DTD SVG 1.1//EN"
 "http://www.w3.org/Graphics/SVG/1.1/DTD/svg11.dtd">
<!-- Generated by graphviz version 14.1.3 (20260303.0454)
 -->
<!-- Title: Phase7 Pages: 1 -->
<svg width="1578pt" height="117pt"
 viewBox="0.00 0.00 1578.00 117.00" xmlns="http://www.w3.org/2000/svg" xmlns:xlink="http://www.w3.org/1999/xlink">
<g id="graph0" class="graph" transform="scale(1 1) rotate(0) translate(21.6 95.2)">
<title>Phase7</title>
<text xml:space="preserve" text-anchor="middle" x="767.49" y="-51.6" font-family="Arial Bold" font-size="20.00">PHASE 7 — VERIFIED TEMPORARY LIFECYCLE</text>
<!-- source -->
<g id="node1" class="node">
<title>source</title>
<path fill="#dcfce7" stroke="#16a34a" d="M97.36,-38.8C97.36,-38.8 12,-38.8 12,-38.8 6,-38.8 0,-32.8 0,-26.8 0,-26.8 0,-14.8 0,-14.8 0,-8.8 6,-2.8 12,-2.8 12,-2.8 97.36,-2.8 97.36,-2.8 103.36,-2.8 109.36,-8.8 109.36,-14.8 109.36,-14.8 109.36,-26.8 109.36,-26.8 109.36,-32.8 103.36,-38.8 97.36,-38.8"/>
<text xml:space="preserve" text-anchor="middle" x="54.68" y="-16.6" font-family="Arial" font-size="14.00">Source commit</text>
</g>
<!-- gates -->
<g id="node2" class="node">
<title>gates</title>
<path fill="#dcfce7" stroke="#16a34a" d="M295.26,-38.8C295.26,-38.8 157.36,-38.8 157.36,-38.8 151.36,-38.8 145.36,-32.8 145.36,-26.8 145.36,-26.8 145.36,-14.8 145.36,-14.8 145.36,-8.8 151.36,-2.8 157.36,-2.8 157.36,-2.8 295.26,-2.8 295.26,-2.8 301.26,-2.8 307.26,-8.8 307.26,-14.8 307.26,-14.8 307.26,-26.8 307.26,-26.8 307.26,-32.8 301.26,-38.8 295.26,-38.8"/>
<text xml:space="preserve" text-anchor="middle" x="226.31" y="-16.6" font-family="Arial" font-size="14.00">Quality + security gates</text>
</g>
<!-- source&#45;&gt;gates -->
<g id="edge1" class="edge">
<title>source&#45;&gt;gates</title>
<path fill="none" stroke="#16a34a" stroke-width="1.5" d="M109.82,-20.8C117.29,-20.8 125.12,-20.8 133.04,-20.8"/>
<polygon fill="#64748b" stroke="#16a34a" stroke-width="1.5" points="132.83,-24.3 142.83,-20.8 132.83,-17.3 132.83,-24.3"/>
</g>
<!-- image -->
<g id="node3" class="node">
<title>image</title>
<path fill="#dcfce7" stroke="#16a34a" d="M516.12,-38.8C516.12,-38.8 355.26,-38.8 355.26,-38.8 349.26,-38.8 343.26,-32.8 343.26,-26.8 343.26,-26.8 343.26,-14.8 343.26,-14.8 343.26,-8.8 349.26,-2.8 355.26,-2.8 355.26,-2.8 516.12,-2.8 516.12,-2.8 522.12,-2.8 528.12,-8.8 528.12,-14.8 528.12,-14.8 528.12,-26.8 528.12,-26.8 528.12,-32.8 522.12,-38.8 516.12,-38.8"/>
<text xml:space="preserve" text-anchor="middle" x="435.69" y="-16.6" font-family="Arial" font-size="14.00">Immutable container image</text>
</g>
<!-- gates&#45;&gt;image -->
<g id="edge2" class="edge">
<title>gates&#45;&gt;image</title>
<path fill="none" stroke="#16a34a" stroke-width="1.5" d="M307.49,-20.8C315.12,-20.8 322.92,-20.8 330.74,-20.8"/>
<polygon fill="#64748b" stroke="#16a34a" stroke-width="1.5" points="330.72,-24.3 340.72,-20.8 330.72,-17.3 330.72,-24.3"/>
</g>
<!-- local -->
<g id="node4" class="node">
<title>local</title>
<path fill="#dcfce7" stroke="#16a34a" d="M728.44,-38.8C728.44,-38.8 576.12,-38.8 576.12,-38.8 570.12,-38.8 564.12,-32.8 564.12,-26.8 564.12,-26.8 564.12,-14.8 564.12,-14.8 564.12,-8.8 570.12,-2.8 576.12,-2.8 576.12,-2.8 728.44,-2.8 728.44,-2.8 734.44,-2.8 740.44,-8.8 740.44,-14.8 740.44,-14.8 740.44,-26.8 740.44,-26.8 740.44,-32.8 734.44,-38.8 728.44,-38.8"/>
<text xml:space="preserve" text-anchor="middle" x="652.28" y="-16.6" font-family="Arial" font-size="14.00">Local kind / k3d validation</text>
</g>
<!-- image&#45;&gt;local -->
<g id="edge3" class="edge">
<title>image&#45;&gt;local</title>
<path fill="none" stroke="#16a34a" stroke-width="1.5" d="M528.32,-20.8C536.02,-20.8 543.83,-20.8 551.58,-20.8"/>
<polygon fill="#64748b" stroke="#16a34a" stroke-width="1.5" points="551.44,-24.3 561.44,-20.8 551.44,-17.3 551.44,-24.3"/>
</g>
<!-- helm -->
<g id="node5" class="node">
<title>helm</title>
<path fill="#dcfce7" stroke="#16a34a" d="M916.61,-38.8C916.61,-38.8 788.44,-38.8 788.44,-38.8 782.44,-38.8 776.44,-32.8 776.44,-26.8 776.44,-26.8 776.44,-14.8 776.44,-14.8 776.44,-8.8 782.44,-2.8 788.44,-2.8 788.44,-2.8 916.61,-2.8 916.61,-2.8 922.61,-2.8 928.61,-8.8 928.61,-14.8 928.61,-14.8 928.61,-26.8 928.61,-26.8 928.61,-32.8 922.61,-38.8 916.61,-38.8"/>
<text xml:space="preserve" text-anchor="middle" x="852.52" y="-16.6" font-family="Arial" font-size="14.00">Helm release contract</text>
</g>
<!-- local&#45;&gt;helm -->
<g id="edge4" class="edge">
<title>local&#45;&gt;helm</title>
<path fill="none" stroke="#16a34a" stroke-width="1.5" d="M740.81,-20.8C748.41,-20.8 756.1,-20.8 763.71,-20.8"/>
<polygon fill="#64748b" stroke="#16a34a" stroke-width="1.5" points="763.69,-24.3 773.69,-20.8 763.69,-17.3 763.69,-24.3"/>
</g>
<!-- registry -->
<g id="node6" class="node">
<title>registry</title>
<path fill="#dcfce7" stroke="#16a34a" d="M1127.34,-38.8C1127.34,-38.8 976.61,-38.8 976.61,-38.8 970.61,-38.8 964.61,-32.8 964.61,-26.8 964.61,-26.8 964.61,-14.8 964.61,-14.8 964.61,-8.8 970.61,-2.8 976.61,-2.8 976.61,-2.8 1127.34,-2.8 1127.34,-2.8 1133.34,-2.8 1139.34,-8.8 1139.34,-14.8 1139.34,-14.8 1139.34,-26.8 1139.34,-26.8 1139.34,-32.8 1133.34,-38.8 1127.34,-38.8"/>
<text xml:space="preserve" text-anchor="middle" x="1051.98" y="-16.6" font-family="Arial" font-size="14.00">Registry digest promotion</text>
</g>
<!-- helm&#45;&gt;registry -->
<g id="edge5" class="edge">
<title>helm&#45;&gt;registry</title>
<path fill="none" stroke="#16a34a" stroke-width="1.5" d="M929.02,-20.8C936.59,-20.8 944.36,-20.8 952.13,-20.8"/>
<polygon fill="#64748b" stroke="#16a34a" stroke-width="1.5" points="952.03,-24.3 962.03,-20.8 952.03,-17.3 952.03,-24.3"/>
</g>
<!-- terraform -->
<g id="node7" class="node">
<title>terraform</title>
<path fill="#dcfce7" stroke="#16a34a" d="M1240.79,-38.8C1240.79,-38.8 1187.34,-38.8 1187.34,-38.8 1181.34,-38.8 1175.34,-32.8 1175.34,-26.8 1175.34,-26.8 1175.34,-14.8 1175.34,-14.8 1175.34,-8.8 1181.34,-2.8 1187.34,-2.8 1187.34,-2.8 1240.79,-2.8 1240.79,-2.8 1246.79,-2.8 1252.79,-8.8 1252.79,-14.8 1252.79,-14.8 1252.79,-26.8 1252.79,-26.8 1252.79,-32.8 1246.79,-38.8 1240.79,-38.8"/>
<text xml:space="preserve" text-anchor="middle" x="1214.07" y="-16.6" font-family="Arial" font-size="14.00">Terraform</text>
</g>
<!-- registry&#45;&gt;terraform -->
<g id="edge6" class="edge">
<title>registry&#45;&gt;terraform</title>
<path fill="none" stroke="#16a34a" stroke-width="1.5" d="M1139.58,-20.8C1147.51,-20.8 1155.35,-20.8 1162.8,-20.8"/>
<polygon fill="#64748b" stroke="#16a34a" stroke-width="1.5" points="1162.62,-24.3 1172.62,-20.8 1162.62,-17.3 1162.62,-24.3"/>
</g>
<!-- eks -->
<g id="node8" class="node">
<title>eks</title>
<path fill="#dcfce7" stroke="#16a34a" d="M1356.59,-38.8C1356.59,-38.8 1300.79,-38.8 1300.79,-38.8 1294.79,-38.8 1288.79,-32.8 1288.79,-26.8 1288.79,-26.8 1288.79,-14.8 1288.79,-14.8 1288.79,-8.8 1294.79,-2.8 1300.79,-2.8 1300.79,-2.8 1356.59,-2.8 1356.59,-2.8 1362.59,-2.8 1368.59,-8.8 1368.59,-14.8 1368.59,-14.8 1368.59,-26.8 1368.59,-26.8 1368.59,-32.8 1362.59,-38.8 1356.59,-38.8"/>
<text xml:space="preserve" text-anchor="middle" x="1328.69" y="-16.6" font-family="Arial" font-size="14.00">AWS EKS</text>
</g>
<!-- terraform&#45;&gt;eks -->
<g id="edge7" class="edge">
<title>terraform&#45;&gt;eks</title>
<path fill="none" stroke="#16a34a" stroke-width="1.5" d="M1253.2,-20.8C1260.65,-20.8 1268.58,-20.8 1276.38,-20.8"/>
<polygon fill="#64748b" stroke="#16a34a" stroke-width="1.5" points="1276.18,-24.3 1286.18,-20.8 1276.18,-17.3 1276.18,-24.3"/>
</g>
<!-- rollout -->
<g id="node9" class="node">
<title>rollout</title>
<path fill="#dcfce7" stroke="#16a34a" d="M1522.97,-41.6C1522.97,-41.6 1416.59,-41.6 1416.59,-41.6 1410.59,-41.6 1404.59,-35.6 1404.59,-29.6 1404.59,-29.6 1404.59,-12 1404.59,-12 1404.59,-6 1410.59,0 1416.59,0 1416.59,0 1522.97,0 1522.97,0 1528.97,0 1534.97,-6 1534.97,-12 1534.97,-12 1534.97,-29.6 1534.97,-29.6 1534.97,-35.6 1528.97,-41.6 1522.97,-41.6"/>
<text xml:space="preserve" text-anchor="middle" x="1469.78" y="-25" font-family="Arial" font-size="14.00">Rollout verification</text>
<text xml:space="preserve" text-anchor="middle" x="1469.78" y="-8.2" font-family="Arial" font-size="14.00">+ rollback</text>
</g>
<!-- eks&#45;&gt;rollout -->
<g id="edge8" class="edge">
<title>eks&#45;&gt;rollout</title>
<path fill="none" stroke="#16a34a" stroke-width="1.5" d="M1368.8,-20.8C1376.11,-20.8 1383.98,-20.8 1391.98,-20.8"/>
<polygon fill="#64748b" stroke="#16a34a" stroke-width="1.5" points="1391.89,-24.3 1401.89,-20.8 1391.89,-17.3 1391.89,-24.3"/>
</g>
</g>
</svg>
